{"glyphs":{"五":{"ha":1389,"x_min":32,"x_max":1364,"o":"m 184 579 l 447 579 q 487 779 468 682 q 521 957 506 876 l 126 957 l 115 996 l 982 996 l 1089 1143 q 1109 1127 1089 1143 q 1159 1085 1128 1111 q 1222 1032 1190 1060 q 1282 979 1255 1004 q 1240 957 1276 957 l 732 957 q 697 778 716 875 q 657 579 679 682 l 844 579 l 939 679 l 1118 541 q 1099 524 1112 532 q 1064 511 1086 516 l 1064 -8 l 1080 -8 l 1183 147 q 1202 130 1183 147 q 1250 86 1221 113 q 1309 30 1278 59 q 1364 -25 1340 0 q 1324 -47 1358 -47 l 43 -47 l 32 -8 l 313 -8 q 375 246 342 101 q 439 541 408 391 l 197 541 l 184 579 m 524 -8 l 859 -8 l 859 541 l 648 541 q 585 245 617 390 q 524 -8 552 101 z "},"击":{"ha":1389,"x_min":32,"x_max":1369,"o":"m 1166 745 q 1187 729 1166 745 q 1239 689 1208 713 q 1306 636 1271 664 q 1369 585 1341 609 q 1356 568 1367 573 q 1329 562 1345 562 l 799 562 l 799 28 l 1023 28 l 1023 473 l 1278 452 q 1266 427 1276 438 q 1227 412 1256 416 l 1227 -85 q 1202 -101 1227 -91 q 1138 -120 1177 -112 q 1059 -129 1099 -129 l 1023 -129 l 1023 -11 l 367 -11 l 309 -96 l 110 1 q 163 50 132 28 l 163 475 l 411 452 q 398 426 409 436 q 359 411 388 415 l 359 28 l 593 28 l 593 562 l 43 562 l 32 602 l 593 602 l 593 892 l 151 892 l 140 930 l 593 930 l 593 1182 l 850 1158 q 838 1133 848 1143 q 799 1118 828 1122 l 799 930 l 949 930 l 1061 1074 q 1082 1058 1061 1074 q 1134 1018 1102 1042 q 1200 965 1166 993 q 1264 914 1235 938 q 1250 897 1261 903 q 1223 892 1238 892 l 799 892 l 799 602 l 1054 602 l 1166 745 z "},"卡":{"ha":1389,"x_min":33,"x_max":1365,"o":"m 554 1187 l 811 1166 q 800 1144 809 1153 q 766 1131 791 1135 l 766 913 l 939 913 l 1039 1051 q 1057 1036 1039 1051 q 1104 997 1076 1021 q 1163 946 1133 973 q 1218 896 1194 920 q 1205 879 1216 884 q 1179 873 1194 873 l 766 873 l 766 636 l 1069 636 l 1175 774 q 1195 759 1175 774 q 1244 720 1214 744 q 1306 670 1274 696 q 1365 619 1339 643 q 1325 597 1359 597 l 822 597 q 807 575 819 584 q 766 561 795 566 l 766 475 q 1013 469 918 488 q 1156 414 1107 450 q 1215 337 1204 378 q 1207 263 1225 296 q 1152 215 1190 229 q 1067 221 1114 201 q 1000 290 1044 249 q 896 374 956 330 q 766 457 836 418 l 766 -78 q 740 -98 766 -85 q 673 -119 714 -110 q 590 -129 633 -129 l 554 -129 l 554 597 l 45 597 l 33 636 l 554 636 l 554 1187 z "},"取":{"ha":1389,"x_min":26,"x_max":1368,"o":"m 921 257 q 830 536 865 384 q 778 867 795 688 l 704 867 l 692 905 l 1067 905 l 1168 1014 l 1346 857 q 1327 839 1339 844 q 1289 829 1315 833 q 1220 536 1265 682 q 1093 258 1175 391 q 1222 144 1152 195 q 1368 53 1291 94 l 1364 35 q 1259 -25 1300 18 q 1207 -126 1217 -68 q 993 119 1081 -25 q 855 -16 932 47 q 682 -131 778 -79 l 668 -119 q 810 55 748 -41 q 921 257 873 151 m 979 407 q 1042 636 1017 519 q 1080 867 1067 752 l 808 867 q 877 615 833 729 q 979 407 920 500 m 697 1179 q 715 1165 697 1179 q 760 1129 732 1152 q 817 1083 787 1107 q 871 1036 846 1058 q 832 1014 865 1014 l 686 1014 l 686 334 l 833 358 l 836 342 q 767 305 804 324 q 686 267 730 286 l 686 -68 q 668 -91 686 -76 q 615 -118 650 -106 q 530 -131 580 -131 l 496 -131 l 496 182 q 345 119 426 152 q 170 50 263 86 q 131 14 156 20 l 26 231 l 160 249 l 160 1014 l 50 1014 l 39 1053 l 600 1053 l 697 1179 m 496 301 l 496 493 l 347 493 l 347 278 l 496 301 m 496 532 l 496 754 l 347 754 l 347 532 l 496 532 m 496 793 l 496 1014 l 347 1014 l 347 793 l 496 793 z "},"吉":{"ha":1389,"x_min":46,"x_max":1348,"o":"m 954 363 l 449 363 l 449 22 l 954 22 l 954 363 m 236 401 l 236 486 l 460 401 l 939 401 l 1034 505 l 1226 358 q 1205 341 1219 350 q 1168 326 1191 332 l 1168 -68 q 1137 -84 1167 -73 q 1066 -103 1107 -94 q 990 -113 1025 -113 l 954 -113 l 954 -17 l 449 -17 l 449 -62 q 421 -87 449 -72 q 352 -115 394 -103 q 267 -127 311 -127 l 236 -127 l 236 401 m 582 1192 l 847 1171 q 834 1144 845 1155 q 790 1128 823 1133 l 790 936 l 1048 936 l 1154 1071 q 1174 1056 1154 1071 q 1224 1018 1194 1042 q 1287 969 1254 995 q 1348 920 1320 943 q 1333 903 1344 908 q 1307 897 1322 897 l 790 897 l 790 625 l 994 625 l 1101 761 q 1121 746 1101 761 q 1172 708 1141 732 q 1236 659 1202 685 q 1296 608 1269 632 q 1255 586 1290 586 l 126 586 l 115 625 l 582 625 l 582 897 l 57 897 l 46 936 l 582 936 l 582 1192 z "},"⼤":{"ha":1389,"x_min":33,"x_max":1360,"o":"m 550 1181 l 827 1156 q 812 1129 823 1139 q 775 1116 800 1120 q 771 935 773 1023 q 761 762 768 847 l 1029 762 l 1145 908 q 1165 892 1145 908 q 1219 852 1186 877 q 1287 799 1251 827 q 1352 746 1322 770 q 1310 724 1345 724 l 768 724 q 859 477 791 597 q 1050 257 927 357 q 1360 87 1173 157 l 1358 71 q 1179 -134 1204 39 q 994 32 1069 -63 q 869 235 918 127 q 793 456 821 344 q 751 672 765 568 q 694 432 734 547 q 576 215 654 317 q 369 26 498 113 q 45 -134 239 -62 l 33 -115 q 269 73 175 -24 q 418 275 362 171 q 502 492 474 380 q 541 724 530 604 l 57 724 l 46 762 l 543 762 q 550 966 549 861 q 550 1181 550 1070 z "},"大":{"ha":1389,"x_min":33,"x_max":1360,"o":"m 550 1181 l 827 1156 q 812 1129 823 1139 q 775 1116 800 1120 q 771 935 773 1023 q 761 762 768 847 l 1029 762 l 1145 908 q 1165 892 1145 908 q 1219 852 1186 877 q 1287 799 1251 827 q 1352 746 1322 770 q 1310 724 1345 724 l 768 724 q 859 477 791 597 q 1050 257 927 357 q 1360 87 1173 157 l 1358 71 q 1179 -134 1204 39 q 994 32 1069 -63 q 869 235 918 127 q 793 456 821 344 q 751 672 765 568 q 694 432 734 547 q 576 215 654 317 q 369 26 498 113 q 45 -134 239 -62 l 33 -115 q 269 73 175 -24 q 418 275 362 171 q 502 492 474 380 q 541 724 530 604 l 57 724 l 46 762 l 543 762 q 550 966 549 861 q 550 1181 550 1070 z "},"⼯":{"ha":1389,"x_min":37,"x_max":1356,"o":"m 37 20 l 581 20 l 581 924 l 139 924 l 127 962 l 956 962 l 1069 1109 q 1090 1094 1069 1109 q 1143 1052 1111 1078 q 1211 999 1175 1027 q 1275 946 1246 970 q 1234 924 1269 924 l 803 924 l 803 20 l 1034 20 l 1149 168 q 1170 152 1149 168 q 1223 110 1191 136 q 1292 56 1256 85 q 1356 3 1327 28 q 1314 -20 1350 -20 l 49 -20 l 37 20 z "},"工":{"ha":1389,"x_min":37,"x_max":1356,"o":"m 37 20 l 581 20 l 581 924 l 139 924 l 127 962 l 956 962 l 1069 1109 q 1090 1094 1069 1109 q 1143 1052 1111 1078 q 1211 999 1175 1027 q 1275 946 1246 970 q 1234 924 1269 924 l 803 924 l 803 20 l 1034 20 l 1149 168 q 1170 152 1149 168 q 1223 110 1191 136 q 1292 56 1256 85 q 1356 3 1327 28 q 1314 -20 1350 -20 l 49 -20 l 37 20 z "},"已":{"ha":1389,"x_min":114,"x_max":1343,"o":"m 114 1067 l 939 1067 l 1034 1171 l 1223 1023 q 1202 1005 1217 1015 q 1162 990 1187 996 l 1162 543 q 1134 524 1162 537 q 1065 499 1105 510 q 989 488 1025 488 l 954 488 l 954 603 l 387 603 l 387 189 q 422 126 387 144 q 547 109 458 109 l 936 109 q 1043 116 1004 109 q 1105 149 1082 123 q 1140 203 1121 168 q 1179 282 1159 239 q 1215 370 1198 326 l 1229 370 l 1231 149 q 1318 112 1293 127 q 1343 68 1343 96 q 1326 5 1343 34 q 1268 -43 1310 -23 q 1148 -75 1225 -64 q 949 -86 1070 -86 l 551 -86 q 273 -25 364 -86 q 182 193 182 36 l 182 868 l 432 847 q 421 824 430 833 q 387 811 412 815 l 387 642 l 954 642 l 954 1028 l 126 1028 l 114 1067 z "},"开":{"ha":1389,"x_min":39,"x_max":1356,"o":"m 1129 1174 q 1146 1160 1129 1174 q 1191 1125 1164 1146 q 1246 1079 1217 1103 q 1299 1034 1275 1055 q 1260 1011 1293 1011 l 1008 1011 l 1008 579 l 1095 579 l 1189 728 q 1206 711 1189 728 q 1250 669 1223 695 q 1305 615 1277 644 q 1356 562 1334 587 q 1317 541 1350 541 l 1008 541 l 1008 -64 q 988 -84 1008 -70 q 928 -109 967 -98 q 833 -121 889 -121 l 793 -121 l 793 541 l 603 541 q 579 344 600 441 q 502 159 559 247 q 336 -3 445 71 q 47 -129 227 -77 l 39 -119 q 214 23 146 -52 q 320 180 282 98 q 373 353 357 262 q 390 541 388 443 l 57 541 l 46 579 l 390 579 l 390 595 l 390 1011 l 115 1011 l 104 1050 l 1036 1050 l 1129 1174 m 604 596 l 604 579 l 793 579 l 793 1011 l 604 1011 l 604 596 z "},"您":{"ha":1389,"x_min":40,"x_max":1368,"o":"m 1031 803 q 1208 746 1142 783 q 1301 665 1274 709 q 1328 581 1329 621 q 1302 513 1326 540 q 1241 482 1278 486 q 1160 509 1203 478 q 1106 662 1147 585 q 1019 794 1065 739 l 1031 803 m 1040 343 q 1216 270 1153 315 q 1303 177 1279 226 q 1320 84 1326 127 q 1285 13 1314 41 q 1217 -15 1257 -14 q 1133 24 1177 -15 q 1105 190 1135 106 q 1029 336 1075 273 l 1040 343 m 464 873 q 421 847 457 853 l 421 390 q 374 361 418 379 l 610 345 q 566 310 606 315 l 566 104 q 574 86 566 91 q 615 81 582 81 l 774 81 q 840 81 807 81 q 889 82 872 81 q 935 102 919 83 q 969 158 949 119 q 1015 258 988 197 l 1028 258 l 1032 97 q 1089 65 1075 83 q 1103 20 1103 47 q 1072 -45 1103 -22 q 965 -79 1042 -69 q 750 -89 888 -89 l 581 -89 q 447 -76 494 -89 q 382 -30 400 -64 q 364 66 364 3 l 364 358 q 316 346 342 351 q 262 339 290 340 q 307 181 303 251 q 287 63 310 111 q 228 -7 264 15 q 144 -17 189 -30 q 85 40 100 -5 q 93 115 72 83 q 151 164 114 146 q 217 232 186 184 q 243 339 248 279 l 220 339 l 220 732 q 54 618 140 665 l 40 628 q 133 785 87 694 q 220 980 180 876 q 286 1189 260 1084 l 549 1089 q 529 1069 543 1076 q 490 1064 514 1062 q 439 980 465 1020 q 383 903 412 939 l 464 873 m 865 1112 q 808 1083 857 1083 q 789 1045 799 1063 q 768 1008 779 1026 l 1099 1008 l 1197 1108 l 1368 947 q 1314 928 1354 932 q 1210 857 1272 895 q 1093 796 1147 819 l 1083 804 q 1099 884 1092 838 q 1109 970 1105 930 l 743 970 q 691 897 718 931 q 636 831 664 862 l 821 762 l 821 956 l 1063 936 q 1017 900 1059 908 l 1017 566 q 1001 460 1017 503 q 938 394 986 418 q 791 361 890 370 q 785 434 789 404 q 766 485 780 465 q 735 518 755 503 q 671 542 715 533 l 671 558 q 687 557 671 558 q 727 555 704 556 q 771 552 750 553 q 800 551 791 551 q 821 570 821 551 l 821 728 q 809 725 816 726 q 794 725 802 725 q 652 566 734 628 q 479 469 571 505 l 465 482 q 553 626 513 541 q 615 810 593 712 q 475 696 548 743 l 460 705 q 517 846 489 766 q 567 1015 545 926 q 604 1193 590 1104 l 865 1112 m 621 418 q 720 395 678 410 q 791 361 762 380 q 860 292 842 330 q 871 221 878 254 q 838 166 863 187 q 777 145 812 145 q 703 175 741 144 q 671 301 699 237 q 610 411 644 366 l 621 418 z "},"我":{"ha":1389,"x_min":35,"x_max":1366,"o":"m 551 1179 l 733 1021 l 732 1161 l 979 1137 q 968 1113 978 1124 q 930 1097 958 1101 q 930 912 928 1004 q 939 736 932 821 l 1078 736 l 1173 848 q 1126 852 1150 846 q 1078 878 1103 858 q 1052 1001 1077 939 q 991 1105 1026 1063 l 1003 1112 q 1151 1074 1096 1101 q 1231 1012 1206 1046 q 1254 944 1255 978 q 1233 885 1253 911 q 1183 851 1214 860 q 1226 821 1195 843 q 1293 771 1257 799 q 1360 720 1330 744 q 1321 697 1354 697 l 943 697 q 993 450 958 562 q 1045 561 1022 505 q 1084 669 1068 616 l 1317 564 q 1298 546 1310 553 q 1261 543 1286 540 q 1180 408 1225 475 q 1076 275 1134 340 q 1127 210 1099 241 q 1189 153 1156 179 q 1214 140 1204 139 q 1235 157 1224 140 q 1282 236 1253 185 q 1332 335 1310 288 l 1344 330 l 1311 90 q 1359 -18 1352 22 q 1346 -79 1366 -58 q 1283 -112 1319 -106 q 1210 -106 1248 -117 q 1138 -76 1173 -96 q 1079 -35 1104 -56 q 997 47 1034 4 q 929 136 960 90 q 748 14 848 69 q 529 -79 649 -41 l 519 -64 q 711 79 625 -1 q 867 249 798 159 q 793 461 820 349 q 753 697 766 574 l 534 697 l 534 511 l 761 543 l 762 528 q 662 476 719 504 q 534 415 606 448 l 534 104 q 517 -11 534 39 q 448 -92 500 -60 q 288 -131 395 -123 q 277 -47 286 -83 q 252 11 269 -11 q 205 50 234 33 q 115 77 177 66 l 115 93 q 140 92 115 93 q 199 88 164 90 q 264 85 233 86 q 309 83 295 83 q 338 111 338 83 l 338 330 l 161 260 q 119 225 149 232 l 35 452 q 160 465 81 456 q 338 486 239 473 l 338 697 l 47 697 l 36 736 l 338 736 l 338 935 q 37 907 184 916 l 35 921 q 224 998 125 953 q 409 1091 323 1043 q 551 1179 496 1139 m 749 736 q 739 860 743 797 q 734 987 736 923 q 659 997 705 981 q 600 983 631 990 q 534 968 569 975 l 534 736 l 749 736 z "},"抽":{"ha":1389,"x_min":22,"x_max":1352,"o":"m 810 422 l 708 422 l 708 45 l 810 45 l 810 422 m 810 461 l 810 827 l 708 827 l 708 461 l 810 461 m 997 422 l 997 45 l 1108 45 l 1108 422 l 997 422 m 997 461 l 1108 461 l 1108 827 l 997 827 l 997 461 m 22 529 q 96 538 50 532 q 197 551 141 543 l 197 823 l 45 823 l 33 863 l 197 863 l 197 1186 l 432 1164 q 382 1125 430 1131 l 382 885 l 444 987 l 528 901 l 528 942 l 718 865 l 810 865 l 810 1166 l 1042 1145 q 1031 1122 1040 1131 q 997 1108 1022 1112 l 997 865 l 1095 865 l 1181 961 l 1352 827 q 1296 796 1335 806 l 1296 -62 q 1270 -82 1295 -69 q 1208 -105 1244 -95 q 1139 -115 1173 -115 l 1108 -115 l 1108 5 l 708 5 l 708 -56 q 687 -81 708 -66 q 631 -108 666 -96 q 557 -119 597 -119 l 528 -119 l 528 578 q 463 535 498 558 q 382 485 427 512 l 382 78 q 368 -29 382 15 q 308 -98 354 -73 q 168 -132 262 -123 q 161 -55 166 -87 q 143 -1 155 -22 q 112 34 132 20 q 50 57 92 49 l 50 77 q 76 75 50 77 q 131 71 101 73 q 172 69 161 69 q 197 89 197 69 l 197 378 l 135 345 q 93 309 123 313 l 22 529 m 382 823 l 382 578 l 528 602 l 528 823 l 382 823 z "},"查":{"ha":1389,"x_min":33,"x_max":1357,"o":"m 1166 110 q 1185 96 1166 110 q 1234 61 1204 83 q 1296 15 1263 39 q 1356 -32 1329 -10 q 1315 -54 1350 -54 l 45 -54 l 33 -16 l 1063 -16 l 1166 110 m 904 460 l 488 460 l 488 335 l 904 335 l 904 460 m 488 86 q 462 63 488 77 q 398 37 437 48 q 318 25 359 25 l 290 25 l 290 578 l 498 498 l 890 498 l 979 591 l 1154 458 q 1136 444 1148 451 q 1105 432 1124 436 l 1105 93 q 1078 71 1105 85 q 1014 43 1052 56 q 939 31 975 31 l 904 31 l 904 126 l 488 126 l 488 86 m 488 165 l 904 165 l 904 296 l 488 296 l 488 165 m 1165 1090 q 1183 1077 1165 1090 q 1229 1041 1201 1063 q 1286 994 1256 1019 q 1341 947 1317 969 q 1301 925 1335 925 l 844 925 q 989 818 903 863 q 1171 743 1075 773 q 1357 696 1267 713 l 1354 681 q 1262 621 1299 667 q 1210 505 1226 575 q 972 677 1076 576 q 810 925 869 777 l 791 925 l 791 579 q 766 562 791 572 q 703 542 741 551 q 625 533 665 533 l 590 533 l 590 775 q 348 616 487 686 q 43 500 209 547 l 35 517 q 213 632 130 566 q 362 774 296 699 q 473 925 429 849 l 62 925 l 52 964 l 590 964 l 590 1175 l 843 1153 q 831 1129 841 1139 q 791 1114 821 1118 l 791 964 l 1068 964 l 1165 1090 z "},"点":{"ha":1389,"x_min":31,"x_max":1342,"o":"m 465 224 q 595 127 552 178 q 646 29 637 77 q 638 -55 654 -18 q 591 -109 623 -91 q 522 -119 559 -127 q 452 -69 485 -111 q 466 80 467 5 q 452 218 464 155 l 465 224 m 704 228 q 878 158 815 201 q 965 68 941 115 q 983 -22 989 20 q 950 -90 977 -64 q 884 -117 923 -117 q 802 -82 844 -118 q 766 78 798 -3 q 693 221 734 159 l 704 228 m 993 239 q 1195 173 1119 215 q 1305 80 1270 130 q 1341 -15 1339 31 q 1319 -92 1342 -61 q 1255 -129 1295 -123 q 1168 -103 1215 -135 q 1092 74 1145 -16 q 982 231 1038 164 l 993 239 m 236 705 l 236 787 l 452 705 l 583 705 l 583 1189 l 859 1169 q 844 1139 857 1152 q 796 1121 832 1127 l 796 953 l 1023 953 l 1124 1090 q 1142 1075 1124 1090 q 1188 1036 1160 1060 q 1246 986 1216 1013 q 1301 936 1277 959 q 1261 914 1295 914 l 796 914 l 796 705 l 947 705 l 1038 804 l 1225 664 q 1205 647 1218 656 q 1169 633 1192 639 l 1169 307 q 1140 289 1168 301 q 1073 266 1112 277 q 997 256 1033 256 l 961 256 l 961 342 l 440 342 l 440 300 q 414 276 440 291 q 347 249 387 261 q 265 237 307 237 l 278 237 q 308 70 313 143 q 271 -53 302 -3 q 196 -122 239 -102 q 105 -129 152 -144 q 43 -68 58 -115 q 54 9 31 -23 q 114 58 77 41 q 180 95 147 69 q 236 157 213 121 q 261 237 258 194 l 236 237 l 236 705 m 440 380 l 961 380 l 961 667 l 440 667 l 440 380 z "},"的":{"ha":1389,"x_min":92,"x_max":1362,"o":"m 730 633 q 901 567 840 608 q 985 479 962 526 q 1000 393 1007 433 q 964 328 992 353 q 895 303 935 302 q 811 340 854 303 q 783 492 809 415 q 720 627 756 568 l 730 633 m 1051 1108 q 996 1079 1042 1079 q 958 995 978 1036 q 917 916 937 954 l 1090 916 l 1194 1021 l 1362 871 q 1340 853 1354 861 q 1300 842 1325 846 q 1291 468 1297 623 q 1273 208 1284 312 q 1242 42 1261 104 q 1192 -52 1222 -20 q 1099 -111 1151 -92 q 970 -129 1048 -129 q 962 -45 970 -80 q 936 9 955 -11 q 786 81 895 58 l 787 97 q 860 92 821 94 q 932 88 899 90 q 985 86 966 86 q 1036 104 1016 86 q 1087 330 1074 138 q 1107 876 1101 522 l 893 876 q 639 583 785 699 l 631 589 l 631 26 q 604 8 630 20 q 542 -15 578 -5 q 473 -25 506 -25 l 443 -25 l 443 85 l 272 85 l 272 -11 q 251 -37 272 -22 q 196 -63 230 -52 q 121 -75 161 -75 l 92 -75 l 92 986 l 267 914 q 277 1047 272 972 q 283 1181 281 1121 l 551 1117 q 492 1082 542 1082 q 418 998 460 1046 q 338 909 375 949 l 429 909 l 515 1006 l 686 871 q 631 840 670 850 l 631 608 q 695 777 663 682 q 752 977 726 872 q 793 1183 778 1081 l 1051 1108 m 443 871 l 272 871 l 272 526 l 443 526 l 443 871 m 272 488 l 272 123 l 443 123 l 443 488 l 272 488 z "},"看":{"ha":1389,"x_min":35,"x_max":1352,"o":"m 1067 1187 l 1236 1014 q 1137 1019 1208 991 q 946 998 1051 1008 q 725 981 841 988 q 706 915 715 947 q 684 851 696 883 l 986 851 l 1083 971 q 1101 958 1083 971 q 1147 924 1120 945 q 1206 880 1175 903 q 1263 835 1237 856 q 1223 812 1257 812 l 668 812 q 606 684 641 746 l 1065 684 l 1166 808 q 1185 795 1166 808 q 1233 760 1204 781 q 1294 713 1262 738 q 1352 667 1325 688 q 1338 650 1350 655 q 1311 644 1326 644 l 583 644 q 557 605 571 625 q 530 567 544 585 l 591 545 l 954 545 l 1042 639 l 1218 504 q 1200 490 1212 497 q 1169 478 1188 482 l 1169 -79 q 1141 -96 1168 -85 q 1075 -118 1114 -108 q 1003 -127 1036 -127 l 968 -127 l 968 -26 l 572 -26 l 572 -77 q 530 -110 572 -87 q 411 -134 487 -134 l 374 -134 l 374 396 q 223 281 305 334 q 47 184 142 229 l 35 199 q 240 399 151 285 q 393 644 330 514 l 66 644 l 56 684 l 411 684 q 437 747 425 715 q 461 812 450 780 l 163 812 l 151 851 l 473 851 q 491 910 483 880 q 505 971 498 941 q 310 967 408 968 q 121 968 212 966 l 118 989 q 371 1026 238 1004 q 633 1075 504 1048 q 874 1131 762 1102 q 1067 1187 987 1160 m 572 338 l 572 197 l 968 197 l 968 338 l 572 338 m 572 376 l 968 376 l 968 505 l 572 505 l 572 376 m 572 158 l 572 12 l 968 12 l 968 158 l 572 158 z "},"祝":{"ha":1389,"x_min":22,"x_max":1361,"o":"m 186 1194 q 340 1146 287 1178 q 411 1078 394 1114 q 415 1008 427 1041 q 373 957 404 976 q 303 941 343 938 q 225 979 264 944 q 211 1091 226 1036 q 176 1189 195 1146 l 186 1194 m 786 604 l 1055 604 l 1055 1040 l 786 1040 l 786 604 m 399 -77 q 380 -96 399 -83 q 328 -122 362 -110 q 249 -134 294 -134 l 214 -134 l 214 383 q 127 317 172 348 q 33 261 81 287 l 22 272 q 164 451 100 353 q 275 650 229 548 q 346 846 321 751 l 52 846 l 39 885 l 336 885 l 436 982 l 600 825 l 600 1154 l 800 1079 l 1050 1079 l 1140 1181 l 1305 1054 q 1287 1038 1298 1045 q 1251 1026 1276 1031 l 1251 570 q 1217 549 1251 564 q 1121 530 1182 534 l 1121 104 q 1124 86 1121 91 q 1141 81 1128 81 l 1178 81 q 1195 81 1187 81 q 1208 81 1203 81 q 1222 85 1217 81 q 1235 97 1228 88 q 1260 168 1244 116 q 1295 281 1277 220 l 1310 281 l 1314 89 q 1352 56 1343 73 q 1361 14 1361 39 q 1315 -63 1361 -36 q 1156 -90 1269 -90 l 1083 -90 q 993 -77 1023 -90 q 954 -31 964 -63 q 945 56 945 1 l 945 566 l 918 566 q 886 340 911 446 q 810 146 861 235 q 671 -12 758 58 q 452 -129 584 -81 l 444 -114 q 612 66 553 -33 q 693 278 670 164 q 720 517 716 391 q 680 510 702 513 q 633 507 659 507 l 600 507 l 600 822 q 541 802 585 807 q 480 690 515 746 q 404 579 446 633 q 546 522 496 557 q 612 450 595 488 q 621 379 629 412 q 586 326 612 346 q 524 307 559 306 q 452 340 488 309 q 434 440 450 389 q 399 534 418 491 l 399 -77 z "},"福":{"ha":1389,"x_min":11,"x_max":1357,"o":"m 1182 1194 q 1200 1180 1182 1194 q 1244 1145 1217 1166 q 1300 1099 1271 1123 q 1354 1053 1330 1074 q 1315 1031 1348 1031 l 562 1031 l 551 1069 l 1088 1069 l 1182 1194 m 176 1190 q 334 1145 279 1176 q 407 1078 389 1115 q 415 1008 425 1042 q 375 955 405 975 q 306 936 346 935 q 227 972 267 938 q 207 1086 224 1029 q 167 1185 189 1142 l 176 1190 m 854 450 l 747 450 l 747 258 l 854 258 l 854 450 m 1014 450 l 1014 258 l 1114 258 l 1114 450 l 1014 450 m 747 -72 q 725 -95 747 -81 q 667 -120 702 -109 q 593 -131 631 -131 l 567 -131 l 567 562 l 755 489 l 1099 489 l 1183 582 l 1357 449 q 1336 432 1351 440 q 1300 419 1322 424 l 1300 -75 q 1274 -91 1299 -80 q 1212 -110 1248 -101 q 1146 -119 1177 -119 l 1114 -119 l 1114 -26 l 747 -26 l 747 -72 m 747 12 l 854 12 l 854 220 l 747 220 l 747 12 m 1059 864 l 812 864 l 812 672 l 1059 672 l 1059 864 m 812 612 q 789 592 812 605 q 730 569 766 579 q 657 558 694 558 l 632 558 l 632 974 l 818 903 l 1044 903 l 1128 994 l 1304 863 q 1284 846 1298 854 q 1249 833 1270 838 l 1249 619 q 1221 606 1248 615 q 1158 589 1194 597 q 1092 581 1122 581 l 1059 581 l 1059 633 l 812 633 l 812 612 m 1014 12 l 1114 12 l 1114 220 l 1014 220 l 1014 12 m 393 -68 q 374 -88 393 -75 q 321 -113 355 -102 q 240 -125 287 -125 l 207 -125 l 207 401 q 117 338 163 368 q 22 285 71 309 l 11 296 q 157 466 90 372 q 273 657 224 559 q 349 846 322 755 l 60 846 l 47 885 l 340 885 l 441 982 l 607 823 q 545 802 592 807 q 401 589 490 694 q 522 510 485 553 q 562 427 559 467 q 544 360 565 387 q 490 332 524 334 q 422 361 456 329 q 413 438 421 399 q 393 514 406 477 l 393 -68 z "},"继":{"ha":1389,"x_min":18,"x_max":1356,"o":"m 37 144 q 153 164 79 150 q 318 198 227 178 q 501 240 409 218 l 504 228 q 366 115 451 182 q 158 -35 281 47 q 143 -59 153 -48 q 119 -74 132 -71 l 37 144 m 1328 979 q 1312 960 1324 968 q 1276 954 1299 952 q 1224 880 1256 923 q 1154 791 1192 836 q 1078 707 1116 745 l 1065 713 q 1087 830 1076 765 q 1106 957 1098 896 q 1118 1055 1115 1017 l 1328 979 m 730 1039 q 848 937 810 990 q 893 838 886 884 l 893 1157 l 1105 1136 q 1094 1114 1103 1124 q 1060 1101 1084 1105 l 1060 633 l 1068 633 l 1149 757 q 1174 733 1149 757 q 1234 677 1200 710 q 1293 616 1267 644 q 1255 595 1287 595 l 1060 595 l 1060 564 q 1206 480 1153 526 q 1280 389 1259 435 q 1297 304 1301 342 q 1270 243 1293 266 q 1215 219 1248 220 q 1147 250 1183 219 q 1116 393 1142 319 q 1060 529 1090 468 l 1060 100 q 1039 79 1060 92 q 987 56 1019 66 q 925 46 956 46 l 893 46 l 893 325 q 714 121 818 210 l 704 132 l 704 1 l 1092 1 l 1186 125 q 1203 111 1186 125 q 1247 76 1221 98 q 1303 31 1274 55 q 1356 -16 1332 6 q 1317 -37 1352 -37 l 715 -37 l 663 -126 l 482 -22 q 526 20 498 -1 l 526 779 l 515 779 q 421 661 478 725 q 299 533 364 596 q 171 421 234 470 q 319 432 235 425 q 489 447 402 439 l 490 432 q 356 356 444 404 q 158 256 268 308 q 117 216 142 227 l 35 416 q 55 422 35 416 q 87 436 76 428 q 158 519 120 465 q 232 636 197 572 l 150 597 q 103 543 131 555 l 18 747 q 37 753 18 747 q 65 766 55 758 q 109 840 86 791 q 154 948 132 888 q 191 1067 175 1008 q 212 1171 206 1126 l 450 1086 q 435 1068 446 1076 q 404 1061 424 1061 q 324 948 371 1008 q 225 832 277 888 q 123 736 173 777 l 285 736 q 328 833 309 786 q 357 920 347 881 l 526 821 l 526 1140 l 751 1118 q 739 1094 749 1103 q 704 1080 729 1084 l 704 147 q 788 358 755 240 q 840 595 821 477 l 725 595 l 714 633 l 893 633 l 893 785 q 865 729 887 749 q 813 710 843 708 q 755 743 784 712 q 749 893 763 815 q 714 1034 734 972 l 730 1039 z "},"续":{"ha":1389,"x_min":21,"x_max":1367,"o":"m 525 492 q 665 485 612 499 q 741 443 717 470 q 765 387 764 416 q 747 335 765 358 q 700 305 730 312 q 632 318 669 298 q 586 410 621 364 q 515 482 552 456 l 525 492 m 582 671 q 721 670 669 682 q 798 631 773 657 q 823 576 822 606 q 807 524 824 547 q 759 493 789 500 q 692 503 729 485 q 644 592 679 547 q 572 661 609 636 l 582 671 m 953 196 q 1169 163 1086 193 q 1295 91 1253 134 q 1344 4 1337 48 q 1333 -74 1352 -40 q 1276 -120 1314 -108 q 1186 -109 1237 -132 q 1120 -1 1160 -56 q 1033 102 1079 53 q 943 187 986 151 l 953 196 m 28 142 q 145 156 68 146 q 317 182 222 167 q 509 214 412 197 l 511 201 q 365 92 456 157 q 143 -54 274 27 q 100 -92 131 -85 l 28 142 m 463 1104 q 447 1086 458 1094 q 415 1078 436 1079 q 336 974 382 1029 q 239 866 290 918 q 139 775 189 814 l 309 777 q 351 863 332 821 q 382 939 370 905 l 595 821 q 576 806 589 812 q 542 803 562 800 l 522 777 l 768 777 l 768 943 l 554 943 l 543 982 l 768 982 l 768 1186 l 1004 1166 q 994 1145 1003 1154 q 960 1131 985 1136 l 960 982 l 1040 982 l 1132 1103 q 1149 1089 1132 1103 q 1192 1055 1166 1076 q 1246 1010 1218 1034 q 1299 965 1275 986 q 1260 943 1295 943 l 960 943 l 960 777 l 1116 777 l 1207 868 l 1367 718 q 1312 700 1352 702 q 1253 638 1287 671 q 1180 572 1218 604 q 1108 517 1142 541 l 1096 525 q 1114 629 1105 570 q 1128 737 1122 688 l 522 737 l 514 766 q 411 655 470 714 q 287 542 352 597 q 158 444 221 487 q 312 455 226 449 q 486 471 397 461 l 488 456 q 344 370 437 422 q 129 262 250 317 q 117 252 124 256 q 104 244 111 248 l 21 444 q 42 450 21 444 q 77 464 64 456 q 154 543 112 491 q 236 656 197 594 l 132 603 q 106 583 118 589 l 24 778 q 41 783 24 778 q 69 798 59 789 q 116 867 92 821 q 163 971 140 914 q 203 1084 186 1028 q 227 1183 220 1141 l 463 1104 m 1187 412 q 1205 399 1187 412 q 1249 365 1222 386 q 1304 319 1276 343 q 1357 273 1333 295 q 1318 252 1353 252 l 954 252 q 739 8 879 100 q 364 -134 600 -84 l 358 -119 q 623 30 521 -62 q 779 252 725 121 l 458 252 l 447 290 l 793 290 q 835 476 822 374 q 847 696 848 577 l 1108 661 q 1095 643 1105 650 q 1055 636 1084 636 q 1023 449 1043 535 q 972 290 1002 362 l 1093 290 l 1187 412 z "},"集":{"ha":1389,"x_min":41,"x_max":1349,"o":"m 603 1185 q 760 1164 705 1185 q 835 1111 816 1143 q 845 1047 854 1079 q 807 995 836 1016 q 739 973 779 974 q 657 1004 699 972 q 637 1100 656 1053 q 595 1178 618 1147 l 603 1185 m 1061 1090 q 1078 1077 1061 1090 q 1121 1041 1095 1063 q 1175 996 1147 1020 q 1226 950 1204 971 q 1187 928 1220 928 l 828 928 l 828 811 l 957 811 l 1044 926 q 1072 905 1044 926 q 1137 852 1099 883 q 1204 794 1175 821 q 1166 772 1200 772 l 828 772 l 828 652 l 957 652 l 1044 766 q 1072 745 1044 766 q 1137 692 1099 723 q 1204 635 1175 662 q 1166 612 1200 612 l 828 612 l 828 485 l 1002 485 l 1099 611 q 1116 597 1099 611 q 1161 562 1134 583 q 1218 515 1188 540 q 1272 468 1248 490 q 1234 446 1266 446 l 446 446 l 446 406 q 427 386 446 399 q 372 360 408 372 q 285 349 336 349 l 249 349 l 249 808 q 153 759 201 781 q 53 720 104 737 l 41 732 q 153 854 97 783 q 256 1013 208 926 q 336 1193 303 1099 l 582 1075 q 561 1057 576 1063 q 521 1054 546 1050 q 487 1011 504 1032 q 453 971 471 991 l 465 966 l 968 966 l 1061 1090 m 1169 435 q 1186 420 1169 435 q 1231 384 1204 406 q 1286 335 1257 361 q 1339 288 1316 310 q 1300 265 1333 265 l 831 265 q 978 185 892 220 q 1160 130 1064 151 q 1349 102 1256 109 l 1348 86 q 1253 22 1292 69 q 1200 -98 1215 -26 q 955 41 1053 -47 q 793 256 857 128 l 793 -85 q 767 -102 793 -92 q 701 -122 741 -113 q 623 -131 662 -131 l 585 -131 l 585 126 q 346 -6 483 50 q 52 -98 210 -62 l 45 -85 q 277 72 175 -22 q 441 265 379 166 l 69 265 l 58 304 l 585 304 l 585 440 l 839 419 q 828 397 837 407 q 793 383 819 387 l 793 304 l 1075 304 l 1169 435 m 446 652 l 623 652 l 623 772 l 446 772 l 446 652 m 446 612 l 446 485 l 623 485 l 623 612 l 446 612 m 446 811 l 623 811 l 623 928 l 446 928 l 446 811 z "},"⻬":{"ha":1389,"x_min":32,"x_max":1372,"o":"m 616 475 q 605 452 614 461 q 572 439 596 442 l 572 289 q 549 157 570 222 q 472 34 528 92 q 314 -69 416 -24 q 47 -142 212 -114 l 41 -129 q 212 -40 147 -89 q 311 63 277 8 q 357 175 345 117 q 370 290 370 233 l 370 497 l 616 475 m 1079 469 q 1068 447 1077 457 q 1035 433 1060 437 l 1035 -85 q 1009 -103 1035 -92 q 944 -123 983 -114 q 867 -132 905 -132 l 831 -132 l 831 490 l 1079 469 m 1112 1124 q 1133 1109 1112 1124 q 1186 1072 1154 1095 q 1254 1022 1219 1048 q 1320 972 1290 996 q 1278 950 1314 950 l 1103 950 q 896 697 1038 799 q 1127 665 1006 674 q 1372 653 1249 655 l 1371 636 q 1274 570 1310 617 q 1225 452 1238 522 q 950 504 1078 470 q 715 596 821 538 q 409 505 580 538 q 36 457 237 471 l 32 473 q 355 553 209 506 q 610 665 501 600 q 486 789 541 718 q 390 950 431 859 l 85 950 l 74 989 l 697 989 q 632 1011 664 991 q 600 1107 626 1060 q 542 1183 573 1154 l 550 1190 q 714 1186 654 1202 q 797 1139 774 1170 q 814 1075 820 1109 q 782 1016 808 1041 q 715 989 755 991 l 999 989 l 1112 1124 m 721 746 q 808 841 771 789 q 865 950 844 892 l 421 950 q 551 829 474 879 q 721 746 627 779 z "},"齐":{"ha":1389,"x_min":32,"x_max":1372,"o":"m 616 475 q 605 452 614 461 q 572 439 596 442 l 572 289 q 549 157 570 222 q 472 34 528 92 q 314 -69 416 -24 q 47 -142 212 -114 l 41 -129 q 212 -40 147 -89 q 311 63 277 8 q 357 175 345 117 q 370 290 370 233 l 370 497 l 616 475 m 1079 469 q 1068 447 1077 457 q 1035 433 1060 437 l 1035 -85 q 1009 -103 1035 -92 q 944 -123 983 -114 q 867 -132 905 -132 l 831 -132 l 831 490 l 1079 469 m 1112 1124 q 1133 1109 1112 1124 q 1186 1072 1154 1095 q 1254 1022 1219 1048 q 1320 972 1290 996 q 1278 950 1314 950 l 1103 950 q 896 697 1038 799 q 1127 665 1006 674 q 1372 653 1249 655 l 1371 636 q 1274 570 1310 617 q 1225 452 1238 522 q 950 504 1078 470 q 715 596 821 538 q 409 505 580 538 q 36 457 237 471 l 32 473 q 355 553 209 506 q 610 665 501 600 q 486 789 541 718 q 390 950 431 859 l 85 950 l 74 989 l 697 989 q 632 1011 664 991 q 600 1107 626 1060 q 542 1183 573 1154 l 550 1190 q 714 1186 654 1202 q 797 1139 774 1170 q 814 1075 820 1109 q 782 1016 808 1041 q 715 989 755 991 l 999 989 l 1112 1124 m 721 746 q 808 841 771 789 q 865 950 844 892 l 421 950 q 551 829 474 879 q 721 746 627 779 z "},"！":{"ha":1389,"x_min":222,"x_max":469,"o":"m 346 -11 q 258 24 294 -11 q 222 109 222 58 q 258 194 222 158 q 346 231 294 231 q 434 194 398 231 q 469 109 469 158 q 434 24 469 58 q 346 -11 398 -11 m 325 346 l 292 526 q 251 726 265 647 q 231 856 237 806 q 225 940 225 906 q 261 1044 225 1010 q 347 1079 296 1079 q 433 1044 397 1079 q 468 940 468 1010 q 463 856 468 906 q 443 726 457 805 q 401 526 429 646 l 368 346 l 325 346 z "}}}
